<svg xmlns="http://www.w3.org/2000/svg" viewBox="0 0 200 200">
    
    <!-- 꼬리 (곡선) -->
    <path d="M 148 155 Q 178 138 170 108 Q 164 88 174 78" stroke="#F59E0B" fill="none" stroke-width="12" stroke-linecap="round"/>
    <path d="M 148 155 Q 178 138 170 108 Q 164 88 174 78" stroke="#FCD34D" fill="none" stroke-width="5" stroke-linecap="round"/>
    <!-- 몸 -->
    <ellipse cx="100" cy="155" rx="46" ry="38" fill="#F59E0B"/>
    <!-- 배 -->
    <ellipse cx="100" cy="160" rx="28" ry="22" fill="#FDE68A"/>
    <!-- 팔 -->
    <ellipse cx="64" cy="155" rx="10" ry="19" fill="#FBBF24" transform="rotate(-10 64 155)"/>
    <ellipse cx="136" cy="155" rx="10" ry="19" fill="#FBBF24" transform="rotate(10 136 155)"/>
    <!-- 귀 (뾰족, 머리 뒤로) -->
    <polygon points="66,58 60,26 84,54" fill="#FBBF24"/>
    <polygon points="134,58 140,26 116,54" fill="#FBBF24"/>
    <polygon points="68,56 64,34 81,54" fill="#FCA5A5"/>
    <polygon points="132,56 136,34 119,54" fill="#FCA5A5"/>
    <!-- 머리 -->
    <circle cx="100" cy="88" r="40" fill="#FBBF24"/>
    <!-- 눈 -->
    
    <circle cx="80" cy="85" r="7.5" fill="white"/>
    <circle cx="120" cy="85" r="7.5" fill="white"/>
    <circle cx="80.5" cy="84.5" r="4.5" fill="#1F2937"/>
    <circle cx="120.5" cy="84.5" r="4.5" fill="#1F2937"/>
    <circle cx="82" cy="82.5" r="1.8" fill="white"/>
    <circle cx="122" cy="82.5" r="1.8" fill="white"/>
    <!-- 코 (핑크) -->
    <ellipse cx="100" cy="98" rx="3.5" ry="2.5" fill="#EC4899"/>
    <!-- 입 -->
    <path d="M 96 103 Q 100 107 104 103" stroke="#374151" fill="none" stroke-width="2" stroke-linecap="round"/>
    <!-- 수염 -->
    <line x1="48" y1="96" x2="74" y2="98" stroke="#374151" stroke-width="1.2" opacity="0.5"/>
    <line x1="48" y1="103" x2="74" y2="102" stroke="#374151" stroke-width="1.2" opacity="0.5"/>
    <line x1="152" y1="96" x2="126" y2="98" stroke="#374151" stroke-width="1.2" opacity="0.5"/>
    <line x1="152" y1="103" x2="126" y2="102" stroke="#374151" stroke-width="1.2" opacity="0.5"/>
    <!-- ZZZ -->
    
  </svg>