<svg xmlns="http://www.w3.org/2000/svg" viewBox="0 0 200 200">
    
    <!-- 몸 (둥글고 통통한) -->
    <ellipse cx="100" cy="158" rx="52" ry="36" fill="#FDE047"/>
    <!-- 배 -->
    <ellipse cx="100" cy="165" rx="36" ry="20" fill="#FEF08A"/>
    <!-- 날개 -->
    <ellipse cx="68" cy="148" rx="18" ry="11" fill="#EAB308" transform="rotate(-18 68 148)"/>
    <ellipse cx="132" cy="148" rx="18" ry="11" fill="#EAB308" transform="rotate(18 132 148)"/>
    <!-- 날개 결 -->
    <ellipse cx="66" cy="150" rx="10" ry="5.5" fill="#CA8A04" transform="rotate(-18 66 150)"/>
    <ellipse cx="134" cy="150" rx="10" ry="5.5" fill="#CA8A04" transform="rotate(18 134 150)"/>
    <!-- 머리 -->
    <circle cx="100" cy="90" r="36" fill="#FDE047"/>
    <!-- 귀 (불필요하지만 귀엽게 작은 볼록 추가) -->
    <!-- 부리 -->
    <ellipse cx="130" cy="94" rx="16" ry="7" fill="#F97316" transform="rotate(5 130 94)"/>
    <line x1="116" y1="94" x2="145" y2="93" stroke="#EA580C" stroke-width="1.5"/>
    <!-- 눈 (부리가 오른쪽이므로 눈을 약간 왼쪽으로) -->
    
    <circle cx="78" cy="87" r="7.5" fill="white"/>
    <circle cx="108" cy="87" r="7.5" fill="white"/>
    <circle cx="78.5" cy="86.5" r="4.5" fill="#1F2937"/>
    <circle cx="108.5" cy="86.5" r="4.5" fill="#1F2937"/>
    <circle cx="80" cy="84.5" r="1.8" fill="white"/>
    <circle cx="110" cy="84.5" r="1.8" fill="white"/>
    <!-- ZZZ -->
    
  </svg>