<svg xmlns="http://www.w3.org/2000/svg" viewBox="0 0 200 200">
    
    <!-- 꼬리 -->
    <ellipse cx="155" cy="155" rx="18" ry="35" fill="#EA580C" transform="rotate(15 155 155)"/>
    <ellipse cx="155" cy="143" rx="12" ry="8" fill="white" transform="rotate(15 155 155)"/>
    <!-- 몸 -->
    <ellipse cx="100" cy="155" rx="46" ry="38" fill="#F97316"/>
    <!-- 배 -->
    <ellipse cx="100" cy="160" rx="28" ry="22" fill="#FED7AA"/>
    <!-- 팔 -->
    <ellipse cx="64" cy="155" rx="10" ry="19" fill="#FB923C" transform="rotate(-10 64 155)"/>
    <ellipse cx="136" cy="155" rx="10" ry="19" fill="#FB923C" transform="rotate(10 136 155)"/>
    <!-- 귀 (뾰족, 머리 뒤로) -->
    <polygon points="68,56 58,22 84,52" fill="#FB923C"/>
    <polygon points="132,56 142,22 116,52" fill="#FB923C"/>
    <polygon points="70,54 64,30 81,52" fill="#FCA5A5"/>
    <polygon points="130,54 136,30 119,52" fill="#FCA5A5"/>
    <!-- 머리 -->
    <circle cx="100" cy="88" r="40" fill="#FB923C"/>
    <!-- 주둘레 (흰색) -->
    <ellipse cx="100" cy="100" rx="18" ry="14" fill="#FED7AA"/>
    <!-- 눈 -->
    
    <circle cx="80" cy="85" r="7.5" fill="white"/>
    <circle cx="120" cy="85" r="7.5" fill="white"/>
    <circle cx="80.5" cy="84.5" r="4.5" fill="#1F2937"/>
    <circle cx="120.5" cy="84.5" r="4.5" fill="#1F2937"/>
    <circle cx="82" cy="82.5" r="1.8" fill="white"/>
    <circle cx="122" cy="82.5" r="1.8" fill="white"/>
    <!-- 코 -->
    <ellipse cx="100" cy="98" rx="4" ry="3" fill="#374151"/>
    <!-- 입 -->
    <path d="M 96 104 Q 100 108 104 104" stroke="#374151" fill="none" stroke-width="2" stroke-linecap="round"/>
    <!-- ZZZ -->
    
  </svg>