<svg xmlns="http://www.w3.org/2000/svg" viewBox="0 0 200 200">
    
    <!-- 꼬리 (줄무늬) -->
    <ellipse cx="152" cy="162" rx="14" ry="32" fill="#9CA3AF" transform="rotate(20 152 162)"/>
    <ellipse cx="152" cy="150" rx="9" ry="4" fill="#6B7280" transform="rotate(20 152 162)"/>
    <ellipse cx="152" cy="163" rx="9" ry="4" fill="#6B7280" transform="rotate(20 152 162)"/>
    <ellipse cx="152" cy="176" rx="9" ry="4" fill="#6B7280" transform="rotate(20 152 162)"/>
    <!-- 몸 -->
    <ellipse cx="100" cy="155" rx="48" ry="40" fill="#9CA3AF"/>
    <!-- 배 -->
    <ellipse cx="100" cy="160" rx="30" ry="25" fill="#C4C9CE"/>
    <!-- 팔 -->
    <ellipse cx="62" cy="155" rx="11" ry="20" fill="#B0B7BC" transform="rotate(-10 62 155)"/>
    <ellipse cx="138" cy="155" rx="11" ry="20" fill="#B0B7BC" transform="rotate(10 138 155)"/>
    <!-- 귀 (머리 뒤로) -->
    <ellipse cx="68" cy="54" rx="15" ry="20" fill="#9CA3AF"/>
    <ellipse cx="132" cy="54" rx="15" ry="20" fill="#9CA3AF"/>
    <ellipse cx="68" cy="56" rx="8" ry="13" fill="#FCA5A5"/>
    <ellipse cx="132" cy="56" rx="8" ry="13" fill="#FCA5A5"/>
    <!-- 머리 -->
    <circle cx="100" cy="90" r="42" fill="#B0B7BC"/>
    <!-- 눈주위 마스크 -->
    <ellipse cx="80" cy="92" rx="17" ry="14" fill="#4B5563"/>
    <ellipse cx="120" cy="92" rx="17" ry="14" fill="#4B5563"/>
    <ellipse cx="100" cy="93" rx="5" ry="9" fill="#4B5563"/>
    <!-- 눈 -->
    
    <circle cx="80" cy="90" r="7.5" fill="white"/>
    <circle cx="120" cy="90" r="7.5" fill="white"/>
    <circle cx="80.5" cy="89.5" r="4.5" fill="#1F2937"/>
    <circle cx="120.5" cy="89.5" r="4.5" fill="#1F2937"/>
    <circle cx="82" cy="87.5" r="1.8" fill="white"/>
    <circle cx="122" cy="87.5" r="1.8" fill="white"/>
    <!-- 코 -->
    <ellipse cx="100" cy="102" rx="4.5" ry="3" fill="#374151"/>
    <!-- 입 -->
    <path d="M 96 107 Q 100 111 104 107" stroke="#374151" fill="none" stroke-width="2" stroke-linecap="round"/>
    <!-- ZZZ -->
    
  </svg>